<svg width="744" height="426" xmlns="http://www.w3.org/2000/svg" xmlns:xlink="http://www.w3.org/1999/xlink" xml:space="preserve" overflow="hidden"><g transform="translate(-1771 -720)"><path d="M72.4909 123.323C69.5516 114.131 66.3372 105.146 62.8478 96.3526 63.2297 102.608 63.2571 108.756 62.9511 114.761 62.6244 120.775 62.1054 127.278 61.3904 134.286 61.2392 135.545 61.1017 137.065 60.9811 138.804 60.8678 140.541 60.861 142.198 60.9537 143.767 61.4078 151.287 64.7834 154.754 71.1158 154.159 72.9172 153.987 74.6568 153.667 76.3412 153.186 78.0155 152.728 79.6209 152.113 81.1747 151.335 78.3216 141.81 75.4371 132.491 72.4909 123.323M176.793 1.77915C179.612 3.25431 181.09 5.23166 181.238 7.74513 181.348 9.63331 180.932 11.0052 179.956 11.8717 178.996 12.7659 177.955 13.5671 176.868 14.2963 175.112 15.4173 173.744 17.2709 172.767 19.8775 171.791 22.4942 171.12 25.6373 170.777 29.2758 170.423 32.9344 170.265 36.7411 170.275 40.6716 170.295 44.6057 170.388 48.2886 170.601 51.7274 171.901 73.3504 174.758 96.1565 179.165 120.166 183.562 144.141 188.519 167.009 194.04 188.698 199.554 210.387 205.107 229.946 210.693 247.384 213.415 255.854 216.214 264.293 219.294 272.536 222.017 279.819 226.369 288.873 226.097 297.45 226.025 299.929 225.561 302.353 224.564 304.685 220.958 313.158 214.756 312.574 208.664 312.495 202.418 312.415 198.633 309.465 195.883 301.208 188.667 279.52 182.056 257.615 176.068 235.517 170.072 213.392 164.128 191.26 158.253 169.135 153.622 167.673 148.919 166.779 144.12 166.449 139.325 166.105 134.45 166.174 129.476 166.641L124.391 167.113C122.803 167.271 121.118 167.58 119.334 168.062 122.634 181.301 125.759 195.407 128.695 210.421 131.662 225.407 133.559 239.953 134.416 254.073 134.924 262.522 134.897 270.558 134.33 278.172 133.762 285.775 132.47 292.522 130.424 298.385 128.406 304.242 125.563 308.997 121.926 312.642 118.272 316.301 113.624 318.382 107.979 318.897 102.784 319.389 97.4561 318.647 91.99 316.635 86.5307 314.609 81.1472 311.889 75.8186 308.457 70.5109 305.029 65.4537 301.325 60.6718 297.367 55.8763 293.389 51.682 289.709 48.0656 286.267 43.239 281.683 38.0995 276.411 32.6301 270.466 27.1535 264.52 22.1172 258.22 17.5039 251.556 12.9109 244.912 8.96094 238.021 5.69497 230.93 2.43261 223.842 0.590105 216.845 0.173964 209.95-0.180099 203.994 0.916738 198.781 3.49155 194.289 6.04903 189.795 8.95083 185.964 12.1684 182.845 15.3929 179.699 18.3221 177.377 20.9518 175.882 23.5851 174.382 24.9158 173.777 24.9328 174.073L24.9602 174.544C25.2009 174.853 25.4449 174.987 25.6687 174.967 25.8921 174.943 26.0502 174.771 26.1498 174.441 26.2425 174.121 26.4006 173.949 26.6345 173.925 27.5354 173.835 28.2435 174.245 28.7452 175.139 29.2577 176.04 29.5258 176.645 29.5464 176.955 29.694 179.458 29.4879 180.981 28.9585 181.508 28.429 182.03 28.2435 183.702 28.412 186.514 28.4463 187.144 28.5975 187.601 28.8383 187.897 29.0891 188.182 29.5464 190.183 30.2235 193.911 31.7845 200.998 34.0807 207.883 37.0958 214.537 40.0968 221.177 43.2769 227.491 46.5873 233.481 52.2046 243.657 57.5881 253.089 62.7829 261.731 67.9531 270.362 72.9002 277.945 77.6062 284.427 82.3195 290.909 86.7166 295.94 90.7903 299.496 94.8709 303.062 98.6078 304.664 101.994 304.355 105.153 304.056 107.089 301.277 107.793 296.03 108.512 290.782 108.677 285.057 108.295 278.811 107.161 260.073 104.772 243.12 101.138 227.914 97.4836 212.742 93.4853 197.34 89.1434 181.745L87.7856 176.222C83.9833 177.206 80.2911 178.179 76.7126 179.162 73.1337 180.122 69.4209 180.761 65.5843 181.14 59.2588 181.724 54.6593 179.915 51.7853 175.72 48.9217 171.525 47.2369 165.304 46.7454 157.051 46.309 149.767 46.2538 143.182 46.5772 137.34 46.9139 131.463 47.2647 125.988 47.6394 120.933 48.0107 115.857 48.3991 111.009 48.8012 106.401 49.2104 101.782 49.2653 97.14 48.987 92.4531 48.8733 90.5686 48.5676 87.5251 48.093 83.3299 47.6119 79.1106 46.9413 74.7537 46.113 70.273 45.2775 65.7818 44.1879 61.7892 42.8402 58.3024 41.4824 54.8051 39.7807 52.8382 37.7075 52.3913 36.7793 52.1743 35.8957 51.614 35.0569 50.7576 34.1943 49.8876 33.7302 48.5157 33.6064 46.6311 33.4415 43.8183 33.9157 41.3355 35.0295 39.1863 36.1538 37.0267 37.522 35.2417 39.1411 33.8493 40.757 32.4427 42.4035 31.3318 44.0572 30.5444 45.7243 29.7433 47.1066 29.2963 48.241 29.1931 55.6904 28.4985 62.8857 32.7146 69.7959 41.8273 76.692 50.9504 82.9796 61.7686 88.6313 74.31 94.2555 86.8514 99.12 99.5647 103.194 112.405 107.264 125.256 110.296 135.053 112.287 141.81 116.099 140.802 120.132 139.798 124.38 138.77 128.64 137.739 132.906 137.009 137.204 136.607 141.721 136.184 146.389 136.232 151.195 136.724 150.36 134.276 149.346 129.726 148.146 123.082 146.946 116.404 145.712 108.952 144.419 100.744 143.117 92.5116 141.937 84.1174 140.847 75.5549 139.768 66.9819 139.015 59.4234 138.627 52.8382 138.039 43.1443 138.513 34.9908 140.057 28.3815 141.583 21.7859 143.766 16.4593 146.585 12.4219 149.401 8.35058 152.574 5.41398 156.097 3.4915 159.621 1.58311 163.086 0.475835 166.473 0.166073 170.536-0.222393 173.984 0.314094 176.793 1.77915" fill="#FF0000" fill-rule="evenodd" transform="matrix(1 0 0 -1 1771 1040)"/><path d="M6.26743 6.26435C8.10238 4.70087 10.108 3.33251 12.2578 2.17007 14.4244 0.987118 16.249 0.311759 17.7382 0.10944 19.2271-0.0964798 20.4698 0.18828 21.4315 0.952918 25.4672 5.80823 28.9689 10.0155 31.9948 13.6504 31.9948 13.6504 38.1972 23.9133 36.9958 28.8273 35.7908 33.7168 16.8207 39.4055 12.008 40.0434 12.008 40.0434 8.80387 40.465 2.99859 26.3753 1.27002 21.8836 0.325231 18.77 0.174654 17.0247 0.0273122 15.269 0.55451 13.4344 1.739 11.5211 2.93355 9.5803 4.4429 7.83826 6.26743 6.26435" fill="#FF0000" fill-rule="evenodd" transform="matrix(1 0 0 -1 2235 886)"/><path d="M216.825 75.1654C218.571 80.6764 220.647 86.538 222.988 92.7225 225.333 98.928 227.777 104.552 230.352 109.627 232.909 114.68 235.233 117.489 237.447 118.074 238.097 118.245 238.822 118.063 239.612 117.503 240.225 116.633 240.627 115.729 240.802 114.735 241.276 112.05 241.173 108.107 240.431 102.93 239.668 97.7384 238.31 92.4717 236.275 87.1223 234.24 81.7935 231.562 76.8914 228.262 72.501 224.951 68.1005 221.056 65.4845 216.667 64.6937 215.439 64.4667 214.573 64.4566 214.064 64.6146 214.119 66.1479 215.085 69.6543 216.825 75.1654M109.822 135.596C107.477 135.882 105.786 134.957 104.744 132.843 93.4105 112.473 83.8541 95.5349 77.3362 81.3604 74.3901 78.9126 71.2654 75.7602 67.9274 71.9646 63.9019 67.3718 59.5501 62.6963 54.8919 57.976 50.2445 53.2421 45.3355 48.9448 40.1929 45.115 35.0536 41.275 29.6873 38.6792 24.1839 37.3077 26.6279 48.1919 32.4753 60.2037 41.0317 73.7935 49.5739 87.3836 59.0859 101.032 69.2476 115 70.6981 116.942 71.5989 119.17 71.9634 121.628 72.3243 124.086 72.0183 126.589 71.0626 129.092 70.1138 131.605 68.8383 133.812 67.2673 135.734 65.6963 137.666 63.9398 139.309 61.9873 140.729 60.0243 142.135 58.1198 143.115 56.2395 143.655 53.3107 144.476 51.3514 144.043 50.3473 142.293 40.2478 127.046 30.4128 112.394 21.0967 98.1509 11.7532 83.8974 5.06711 70.971 1.75653 58.8423-0.316153 51.2411-0.3988 43.7914 1.72224 36.4515 3.81224 29.1253 9.39183 23.8106 18.3365 20.9297 22.2964 19.661 27.0747 20.1284 32.5612 22.4146 38.0372 24.7007 43.6886 28.0494 49.4639 32.4979 54.531 36.3931 59.4021 40.7935 64.0877 45.7098 63.5309 43.4579 63.0942 41.3194 62.7849 39.322 61.2138 29.2387 61.8566 21.8338 64.868 17.1684 67.8621 12.4929 71.0146 9.8527 74.2389 9.2716 77.1987 8.73526 79.1032 9.68415 79.9318 12.0703 85.4901 22.0157 92.025 32.0615 99.3543 42.3372 106.659 52.6129 113.521 62.1701 120.021 70.9573 126.518 79.7377 132.053 87.3046 136.81 93.5202 141.572 99.7632 144.518 103.559 145.886 104.803 145.188 102.813 143.699 98.9966 141.31 93.4069 138.932 87.8305 136.395 81.3846 133.689 74.1032 130.974 66.8217 128.371 59.0725 125.906 50.8079 123.431 42.5538 121.953 34.932 121.62 27.9599 121.2 19.2037 123.053 12.359 127.329 7.48752 131.596 2.64346 136.542 0.137154 142.019 0.0581099 147.196-0.020934 152.692 1.9216 158.299 5.94382 163.913 9.95593 169.121 14.9992 173.871 21.0672 176.763 24.7696 179.506 28.7128 182.119 32.9072 182.723 29.6859 183.93 26.5884 185.79 23.6832 188.293 19.7642 191.658 16.3812 195.924 13.6035 200.2 10.8258 205.212 8.82477 210.95 7.66979 216.677 6.52816 222.841 6.53863 229.32 7.79684 237.66 9.41958 244.893 13.043 250.826 18.5057 256.746 23.9482 261.785 30.4973 265.897 38.0191 269.994 45.5517 273.332 53.6752 275.9 62.3285 278.475 71.0057 280.733 79.4731 282.679 87.7825 283.432 90.8146 284.175 93.8537 284.889 96.8722 286.154 102.61 286.461 106.553 285.893 108.688 285.635 109.637 285.178 109.991 284.501 109.719 282.707 109.021 279.795 105.236 275.491 98.4812 273.734 95.5107 271.82 90.5497 269.623 83.578 267.42 76.6402 264.669 69.3486 261.321 61.768 257.945 54.2151 253.892 47.2979 249.169 41.0928 244.456 34.9078 238.887 31.1022 232.658 29.7887 225.656 28.3244 220.582 29.2733 217.567 32.4156 214.545 35.5474 212.789 39.6418 212.222 44.6028 212.026 46.3389 211.953 48.0887 212.009 49.8695 212.057 51.6298 212.232 53.4485 212.538 55.2532 214.36 54.82 216.416 54.7858 218.646 55.1983 224.133 56.1916 229.86 59.2548 235.642 64.4082 241.424 69.5753 246.399 75.7259 250.537 82.7767 254.673 89.8416 257.639 97.271 259.499 104.965 261.376 112.655 261.555 119.548 260.225 125.572 258.905 131.619 255.605 136.212 250.51 139.529 245.405 142.843 239.967 143.689 234.006 142.121 227.292 140.375 221.036 135.552 214.855 127.617 208.681 119.686 203.102 110.507 198.072 99.9798 193.497 90.3884 189.647 80.4563 186.656 70.0911 186.636 70.0911 186.636 70.0773 186.636 70.0773 185.735 68.5235 184.803 66.8665 183.885 65.1163 180.936 59.5851 177.722 53.8611 174.215 47.9855 170.702 42.1001 166.879 36.462 162.74 31.0574 158.605 25.6496 153.992 21.4213 148.963 18.4165 149.224 25.1717 151.149 33.2956 154.466 42.8631 157.787 52.4307 161.263 61.9881 164.834 71.542 168.395 81.0749 171.445 89.7831 174.057 97.6352 176.67 105.457 177.814 110.644 177.684 113.147 177.395 118.142 175.339 122.278 171.582 125.664 167.839 129.047 163.765 130.646 159.255 130.498 156.03 130.405 152.655 129.092 149.083 126.579 145.504 124.062 141.833 120.793 137.993 116.794 134.153 112.769 130.155 108.142 125.944 102.882 121.73 97.6489 117.453 92.2172 113.084 86.617 114.146 88.5285 115.594 90.8453 117.371 93.5682 119.155 96.2979 120.857 98.9865 122.476 101.627 124.085 104.267 125.497 106.804 126.725 109.228 127.942 111.662 128.574 113.501 128.629 114.77 128.677 116.086 128.416 117.468 127.859 118.909 127.467 119.926 126.948 120.978 126.267 122.051 126.212 122.062 126.092 121.938 125.917 121.697 125.831 121.835 125.748 121.958 125.656 122.075 125.758 122.199 125.851 122.326 125.951 122.45 123.889 125.355 121.314 128.177 118.237 130.955 115.167 133.743 112.379 135.297 109.822 135.596" fill="#FF0000" fill-rule="evenodd" transform="matrix(1 0 0 -1 2171 1028)"/><path d="M41.7399 176.793C50.1801 182.049 58.7233 186.552 67.38 190.323 64.9963 183.592 62.6846 176.872 60.4007 170.141 58.1374 163.397 55.9121 156.552 53.749 149.547 48.1233 151.169 42.4944 152.644 36.8864 153.991 31.2506 155.329 25.6322 156.676 20.0032 158.013 26.0593 165.294 33.3001 171.547 41.7399 176.793M5.39348 136.219C6.26148 136.219 7.45352 136.494 8.96238 137.03 10.4817 137.567 12.1041 137.831 13.8369 137.831 18.1671 137.831 22.9761 137.443 28.2777 136.632 33.5793 135.82 38.6018 134.861 43.3696 133.796 35.7873 130.035 28.9768 125.453 22.9208 120.07 19.2383 115.497 16.2691 110.252 14.0022 104.332 11.7219 98.4026 10.5953 92.617 10.5953 86.962 10.5953 84.7999 10.864 82.9265 11.3946 81.3143 11.9457 79.7022 12.9689 78.8909 14.4879 78.8909 14.9186 78.8909 15.9899 79.7603 17.7295 81.5204 19.4553 83.2563 21.5121 85.2813 23.8889 87.5673 26.2727 89.8633 28.8083 92.1391 31.5193 94.4356 34.2199 96.7215 36.7656 98.526 39.1497 99.8873 36.1114 88.3096 33.3656 76.8799 30.8683 65.5769 28.3808 54.2501 27.1407 46.7528 27.1407 34.388 27.1407 24.4224 28.9768 16.2033 32.656 9.75765 36.3352 3.27805 41.9642 0.0534132 49.5287 0.0534132 54.2896 0.0534132 58.7233 1.80342 62.8433 5.31317L65.1066 7.72289 62.8433 9.75765C60.2354 11.9061 58.4546 15.0618 57.4864 19.2453 56.5081 23.4051 56.0224 27.7705 56.0224 32.3529 56.0224 39.0836 56.6285 41.4728 57.8104 48.2173 58.9952 54.9376 60.1319 60.4446 61.2137 64.7555 63.1703 73.1089 65.32 81.3728 67.7073 89.5883 70.0809 97.7941 72.5782 105.944 75.1688 114.026 80.5739 115.35 86.0339 116.436 91.5558 117.247 97.0816 118.059 102.645 118.722 108.281 119.258 108.281 112.184 110.554 105.669 112.811 99.303 113.162 98.2993 113.768 97.4054 114.282 96.5392 114.895 95.4977 115.594 94.5626 116.369 93.7134 116.786 93.246 117.289 92.8129 117.813 92.7649 119.966 91.6339 122.07 97.2578 122.715 99.2824 124.13 103.717 125.518 108.904 126.941 114.813 128.33 120.757 129.963 126.584 131.799 132.39 133.631 138.175 135.746 142.276 138.134 144.699 139.856 146.573 140.731 148.873 140.731 151.558 140.731 155.604 139.102 159.488 135.86 163.273 132.608 167.033 129.15 168.931 125.47 168.931 122.015 168.931 119.153 166.508 116.872 161.661 114.609 156.803 112.811 152.242 111.522 147.934 107.182 147.934 102.913 147.797 98.6936 147.512 94.4842 147.26 90.2158 146.858 85.8824 146.322 89.341 156.016 92.8064 165.627 96.2719 175.191 99.7203 184.737 103.286 194.221 106.975 203.65 122.983 207.136 139.856 208.896 157.597 208.896 160.408 208.896 163.977 208.69 168.317 208.291 172.038 207.958 175.755 207.308 179.482 206.349 179.434 206.28 179.368 206.187 179.33 206.108 188.955 204.895 201.291 198.484 201.877 187.845 201.877 187.81 201.908 187.741 201.908 187.707 202.008 186.748 202.063 185.754 202.063 184.654 202.063 183.822 202.056 183.066 202.029 182.348 201.067 177.477 201.812 172.771 204.144 171.33 206.462 169.89 209.955 171.33 211.113 172.771 211.716 173.534 212.322 174.28 212.759 174.826 213.393 175.455 214.01 176.188 214.606 177.112 214.726 177.319 214.837 177.511 214.961 177.742 221.082 185.593 224.138 193.97 224.138 202.839 224.138 206.885 223.373 210.567 221.854 213.936 220.345 217.308 218.388 220.199 216.021 222.622 213.638 225.056 210.992 227.126 208.064 228.886 205.15 230.635 202.177 232.189 199.138 233.526 192.004 236.497 184.429 238.566 176.423 239.79 168.421 240.989 160.308 241.594 152.089 241.594 144.507 241.594 136.997 241.137 129.532 240.189 122.07 239.24 114.867 238.099 107.953 236.747 106.865 238.91 104.919 241.333 102.104 244.028 99.2896 246.716 96.5992 248.054 93.988 248.054 92.052 248.054 90.3742 247.459 88.9688 246.235 87.5496 245.046 86.4231 243.482 85.5652 241.594 84.6903 239.721 83.9359 237.617 83.2849 235.345 82.6303 233.045 81.9898 230.965 81.3352 229.081 71.8238 225.857 62.2368 221.822 52.6119 216.988 42.9869 212.131 34.2784 206.487 26.4897 200.003 18.7009 193.558 12.3729 186.153 7.50162 177.81 2.6481 169.454 1.11862 160.117 0.205786 149.945-0.483182 142.403 4.30488 136.391 4.30488 136.391 4.63905 136.264 5.00433 136.219 5.39348 136.219" fill="#FF0000" fill-rule="evenodd" transform="matrix(1 0 0 -1 2070 1008)"/><path d="M1.5659 4.62275C1.92888 3.55829 2.60293 2.66735 3.58479 1.96124 4.57718 1.23395 5.65233 0.725832 6.82112 0.423371 7.98956 0.123833 9.18594 0.00584464 10.403 0.0405472 11.627 0.0891308 12.5813 0.294424 13.2727 0.677248 13.9642 1.06007 14.4237 1.6376 14.6557 2.41347 15.3399 7.5732 18.3897 22.0336 13.2172 24.5665 10.0745 26.0803 3.9583 23.582 1.02288 21.9397 1.02288 21.9397-0.463526 21.1185 0.490749 10.9971 0.846833 7.80297 1.20292 5.68757 1.5659 4.62275" fill="#FF0000" fill-rule="evenodd" transform="matrix(1 0 0 -1 2420 773)"/><path d="M16.7966 2.88848C17.4324 1.93082 18.1155 0.949011 18.8152 0.433957 19.737-0.228873 20.5172 0.0356825 21.1632 0.468198 22.8756 1.61148 24.1408 3.76757 24.7868 6.68885 25.1771 8.47082 25.3416 10.606 24.9044 13.0573 24.7596 13.8574 24.5476 14.6673 24.3022 15.488 23.8109 17.0981 23.1652 18.7427 22.509 20.3185 20.016 26.3434 17.2441 32.3031 14.3305 37.9886 10.8988 44.6969 8.06964 43.1106 5.3143 42.153 3.37663 41.4901-0.529452 40.3609 0.27126 35.3826 1.9299 25.1349 11.6829 10.5476 16.7966 2.88848" fill="#FF0000" fill-rule="evenodd" transform="matrix(1 0 0 -1 2387 782)"/><path d="M6.5158 3.22276C8.68785 1.54959 10.2075 0.544596 11.0916 0.224415 11.9725-0.0954037 12.9583-0.00614342 14.0215 0.499785 15.0953 1.00246 16.1025 1.72196 17.0394 2.67203 17.9795 3.62209 18.8253 4.71995 19.5831 5.92479 20.3446 7.1466 20.8253 8.21014 21.0464 9.1396 21.2534 10.0553 21.1974 10.8677 20.885 11.5662 18.692 14.7572 16.7936 17.5178 15.1513 19.9065 15.1513 19.9065 10.3582 25.1627 7.75802 25.0355 5.15789 24.9217 0.848781 13.6489 0.175356 10.6953 0.175356 10.6953-0.277401 8.71643 6.5158 3.22276" fill="#FF0000" fill-rule="evenodd" transform="matrix(1 0 0 -1 2372 804)"/><path d="M2.25116 4.42801C9.5444-0.444009 24.7436-0.047953 32.705 0.131427 33.7002 0.15487 34.7367 0.198916 35.5078 0.557675 36.5132 1.04147 36.8508 1.98525 37.016 2.88535 37.4361 5.29436 36.9506 7.9165 35.5906 10.3895 34.771 11.9087 33.5795 13.4144 31.8095 14.5308 31.2242 14.8995 30.6009 15.2142 29.9466 15.4849 28.6451 16.0262 27.2367 16.4187 25.8492 16.791 20.5703 18.1511 15.1501 19.1862 9.813 19.9172 3.50779 20.7732 2.63329 16.9938 1.41425 13.6748 0.563604 11.3471-1.29568 6.78978 2.25116 4.42801" fill="#FF0000" fill-rule="evenodd" transform="matrix(1 0 0 -1 2346 828)"/><path d="M9.64337 21.0458C7.19827 21 5.54884 20.81 4.7089 20.4824 3.85905 20.1549 3.10338 19.3838 2.45608 18.2252 1.79815 17.0423 1.27868 15.7325 0.921384 14.2571 0.567278 12.7921 0.331089 11.2569 0.229815 9.69022 0.118625 8.11985 0.175991 6.86962 0.384913 5.93324 0.59419 4.99649 0.978749 4.31703 1.52513 3.92962 5.35656 2.39806 15.9475-3.38731 18.4468 2.94703 19.9712 6.78533 18.7673 14.9824 17.8632 18.9612 17.8632 18.9612 17.4146 20.9752 9.64337 21.0458" fill="#FF0000" fill-rule="evenodd" transform="matrix(1 0 0 -1 2483 851)"/><path d="M0.642789 9.87393C0.0104665 8.72662 0.123794 7.66469 0.381848 6.73438 1.06217 4.30141 2.6058 2.34087 4.80955 1.10145 6.1572 0.334463 7.8037-0.162944 9.7631 0.121182 10.4128 0.202841 11.0765 0.369886 11.7366 0.593607 13.0565 1.03061 14.411 1.68052 15.7344 2.34087 20.7364 4.88048 25.7278 7.79631 30.5168 10.9463 36.1683 14.6437 35.278 18.6106 34.8586 22.4146 34.5699 25.0818 34.1606 30.4302 30.1627 30.0185 21.9635 29.1553 9.39208 18.0461 2.79853 12.2357 1.97348 11.5146 1.1275 10.7368 0.642789 9.87393" fill="#FF0000" fill-rule="evenodd" transform="matrix(1 0 0 -1 2479 819)"/><path d="M29.8383 18.2904C25.2402 21.5854 20.4331 24.6765 15.6059 27.4046 14.3273 28.1175 13.0215 28.8264 11.7363 29.3355 11.0889 29.5831 10.451 29.7869 9.82024 29.8987 7.90422 30.2721 6.27152 29.8987 4.92889 29.2678 2.73272 28.219 1.16095 26.4478 0.422163 24.1674 0.142019 23.2889-0.00637494 22.2843 0.577286 21.1543 1.03593 20.2993 1.83882 19.4985 2.63143 18.7521 8.91642 12.8071 20.9052 1.43639 28.9274 0.102599 32.8203-0.538645 33.387 4.53752 33.7514 7.07578 34.2706 10.6625 35.2658 14.4088 29.8383 18.2904" fill="#FF0000" fill-rule="evenodd" transform="matrix(1 0 0 -1 2478 894)"/><path d="M0.346878 9.75243C0.614789 8.40765 1.06119 7.11954 1.69328 5.88775 2.33548 4.6657 3.07719 3.52014 3.94294 2.46357 4.79463 1.40736 5.56736 0.701941 6.26436 0.350797 6.95126-0.0232937 7.59382-0.0698812 8.1776 0.238152 10.9079 2.46357 13.2849 4.39104 15.3283 6.04351 15.3283 6.04351 19.965 11.1167 20.1708 14.2328 20.3735 17.3389 12.1065 23.8462 9.87773 25.0119 9.87773 25.0119 8.40079 25.7935 3.32815 18.3624 1.7791 15.9847 0.82068 14.2891 0.477408 13.2757 0.123679 12.2723 0.078967 11.0837 0.346878 9.75243" fill="#FF0000" fill-rule="evenodd" transform="matrix(1 0 0 -1 2464 791)"/><path d="M1.9809 0.515981C3.85557-0.343254 6.00054-0.0535417 8.14916 1.35064 9.45193 2.20988 10.7998 3.54806 11.9054 5.66112 12.2623 6.37036 12.581 7.12472 12.8789 7.92454 13.4716 9.51759 13.95 11.2815 14.4004 13.0106 16.1157 19.5948 17.5847 26.403 18.7944 33.1478 20.2288 41.105 17.3144 42.7292 14.8125 44.7169 13.0488 46.1108 9.61819 49.0831 7.31387 44.832 2.56298 36.1344 1.07321 16.6364 0.276125 6.4052 0.182628 5.11617 0.0960436 3.77836 0.293588 2.74456 0.567167 1.39979 1.26712 0.840898 1.9809 0.515981" fill="#FF0000" fill-rule="evenodd" transform="matrix(1 0 0 -1 2446 775)"/><path d="M15.3399 77.6092C2.63758 64.9218-1.06304 48.0904 0.507171 28.4239 1.40067 17.2976 15.3122 17.9745 14.4122 29.1595 13.3506 42.4756 14.3364 53.8299 22.9399 63.0053 31.1448 71.7421 42.4728 74.7603 52.8179 71.0757 70.9007 64.6111 83.8437 35.2648 71.2892 14.9806 65.8261 6.16081 76.0305-5.69783 81.5315 3.19769 89.9387 16.7694 92.3577 32.682 88.1283 49.3198 83.5482 67.3324 72.0139 81.6495 57.6764 87.4129 43.3555 93.1561 27.0766 89.333 15.3399 77.6092" fill="#FF0000" fill-rule="evenodd" transform="matrix(1 0 0 -1 2387 873)"/><path d="M61.8968 34.675C50.0791 41.5267 37.305 43.9104 26.1077 42.7797 19.0507 42.0903 12.6176 39.744 7.28771 36.2335 1.94094 32.6884-0.293624 28.4782 0.251164 24.3564 0.337164 23.657 0.641943 23.0356 1.15291 22.4721 1.69769 23.0356 2.38678 23.5315 3.19208 23.9183 8.92963 27.925 16.3807 29.6396 22.6494 29.765 23.3179 29.7754 23.88 29.7312 24.3528 29.6057 30.8615 29.8092 37.9153 28.7127 44.9414 25.9829 55.7961 21.7827 65.1425 14.5913 72.2064 5.55982 73.197 4.28652 74.3452 3.20322 75.6715 2.28674 76.9878 1.36313 78.3861 0.741809 79.8906 0.412433 81.3987 0.0862651 82.7801-0.0256657 84.0791 0.0966027 85.3781 0.212098 86.581 0.504045 87.695 0.979216 88.8156 1.45118 89.7069 2.04898 90.3376 2.83 91.3383 4.02487 91.4481 5.24399 90.6151 6.48664 83.5512 18.0002 73.7144 27.8672 61.8968 34.675" fill="#FF0000" fill-rule="evenodd" transform="matrix(1 0 0 -1 2379 902)"/><path d="M63.1319 56.066C58.9866 46.657 53.9648 38.0262 48.2107 32.1669 45.3476 29.2371 42.3159 27.1885 39.2669 26.0424 36.2111 24.9096 33.0766 24.6927 29.7663 25.3571L28.5116 25.6531 27.8894 25.8356 27.5733 25.9285C27.4701 25.9527 27.3326 25.9871 27.3326 26.0077 27.0612 26.1558 26.7379 26.273 26.3463 26.5932 25.5658 27.1404 24.6618 28.1148 23.8816 29.3405 22.2833 31.812 21.2144 35.1311 21.0012 38.4841 20.4443 45.1906 23.3078 52.5061 28.67 58.8028 33.9874 65.1446 41.3773 70.1913 49.2352 74.1606 56.6424 77.9409 64.6274 80.7536 72.7805 83.0325 70.0202 73.634 66.8684 64.5142 63.1319 56.066M533.139 152.534C527.237 139.737 520.294 127.981 512 118.448 503.747 108.877 494.243 101.586 483.989 96.4693 473.763 91.295 462.795 88.3446 451.61 86.6028 429.168 83.3527 405.881 85.0468 382.724 88.6753 371.112 90.4481 359.511 92.8203 347.917 95.4747 336.317 98.0738 324.743 101.186 313.17 104.415 301.593 107.655 290.01 111.008 278.426 114.451L269.688 117.016 260.487 119.536C258.961 119.945 257.428 120.369 255.885 120.737L251.244 121.777C248.157 122.476 245.064 123.164 241.967 123.791 229.527 126.139 217.016 127.74 204.456 128.521 201.324 128.793 198.162 128.793 195.031 128.92L190.315 129.069 185.602 129.044C182.461 128.989 179.329 129.069 176.184 128.91L166.769 128.439C154.237 127.557 141.753 125.991 129.368 123.667 123.662 122.603 105.737 119.467 102.437 118.95 106.789 140.161 110.257 161.485 113.165 182.888 115.1 197.127 117.173 211.47 118.52 225.812 119.05 231.558 119.765 238.836 124.106 242.488 127.213 245.122 130.949 244.994 132.689 249.79 133.328 251.494 133.283 253.522 132.782 255.285 132.716 255.571 132.623 255.822 132.538 256.073 130.949 260.425 126.914 262.666 123.474 264.201 119.84 265.851 115.918 266.363 112.113 265.358 102.252 262.783 97.491 251.804 95.7072 240.337 94.8065 234.567 94.5073 228.683 94.4319 222.823 89.8947 186.207 81.6968 173.1 71.3298 161.588 67.1192 156.906 60.9115 153.012 58.5568 154.238 58.6052 162.194 59.5434 170.116 61.1623 177.807 62.8912 186.035 64.9915 194.528 67.4732 203.286 69.9448 212.041 72.6531 220.465 75.5613 228.545 76.6577 231.592 77.7096 234.429 78.7305 237.062 80.236 240.209 81.3529 242.967 82.1436 245.339 82.6077 246.403 83.0649 247.408 83.5012 248.372 83.9274 249.711 84.0959 251.13 83.9927 252.616 83.9757 252.789 83.9757 252.927 83.9653 253.109 84.0753 254.152 84.1064 255.02 84.0753 255.708 84.1064 255.822 84.1233 255.959 84.1511 256.063 84.0959 256.442 84.0205 256.796 83.9552 257.14 83.8621 257.767 83.7318 258.053 83.7318 258.053 83.027 268.766 74.7981 272.557 69.8726 273.886 69.7694 274.023 69.6662 274.137 69.5839 274.251 68.4872 274.787 67.2051 275.053 65.6963 275.053 64.5996 275.053 63.8677 274.787 63.4206 274.251 62.9912 273.714 62.565 273.173 62.1385 272.636 55.2195 253.498 49.2352 234.818 44.1581 216.63 39.0814 198.432 36.555 182.454 36.555 168.718 36.555 164.39 36.9263 160.225 37.6791 156.183 38.4319 152.145 39.6314 148.561 41.2398 145.47 42.8659 142.357 45.021 139.861 47.7297 137.985 50.4142 136.085 53.5934 135.148 57.275 135.148 63.9121 135.148 71.0617 139.29 75.9702 144.199 81.7723 149.993 87.5985 161.678 87.5711 161.588 85.5466 145.366 84.6358 134.918 81.4735 119.112 81.1674 117.611 80.8614 116.11 80.5453 114.602 76.7335 113.673 72.949 112.668 69.1473 111.521 59.5434 108.567 49.9602 104.952 40.5318 99.7675 35.8296 97.2027 31.1618 94.2732 26.6246 90.7373 22.0874 87.1984 17.6534 83.0567 13.6109 77.972 9.58613 72.8905 5.85655 66.8589 3.32685 59.5809 2.07211 55.9525 1.0891 52.0724 0.566565 48.0203 0.0544913 43.9444-0.0176826 39.7441 0.381078 35.5991 1.18185 27.3023 3.89378 19.346 8.38624 12.8668 10.6345 9.60667 13.35 6.69781 16.7151 4.45653L17.9969 3.64402C18.444 3.39282 18.9009 3.17234 19.365 2.93126 20.2552 2.45272 21.2624 2.10863 22.2559 1.76418 22.524 1.66081 22.6648 1.63009 22.8506 1.57153L23.4006 1.42334 24.4868 1.12407 26.7173 0.631794C32.6778-0.490833 39.1673-0.00867452 45.0794 2.31501 51.019 4.63906 56.2711 8.54296 60.6675 13.053 65.0741 17.5627 68.7485 22.6546 71.9451 27.9081 75.1247 33.1858 77.8846 38.632 80.3494 44.1613 85.268 55.2534 89.0867 66.642 92.4518 78.1097 92.9643 79.8721 93.4659 81.6486 93.9574 83.4319 94.2017 84.3134 94.442 85.2084 94.6827 86.0899 94.8339 86.6371 94.8614 87.5769 95.2706 87.9419 95.5661 88.2173 96.2363 88.183 96.6008 88.2278 108.322 89.7184 120.043 91.5946 131.812 92.7722 137.456 93.323 143.238 93.0921 148.909 93.0028 154.849 92.8994 160.792 92.624 166.721 92.1903 172.541 91.629 178.343 91.1472 184.135 90.369L188.465 89.8424 192.8 89.1676C195.691 88.6753 198.571 88.2965 201.455 87.7836L210.072 86.2139C212.943 85.6869 215.799 84.9673 218.662 84.372 221.525 83.7763 224.389 83.2049 227.231 82.4611L235.787 80.4229 244.311 78.1441 248.566 77.025 252.808 75.7756 270.201 70.6493C282.145 67.2134 294.186 64.1011 306.326 61.4572 318.457 58.789 330.683 56.5582 342.982 54.6578 355.291 52.8506 367.682 51.4974 380.166 50.7091 392.66 50.1033 405.241 49.9208 417.894 50.9606 424.215 51.4768 430.553 52.2101 436.895 53.2738 443.227 54.3618 449.558 55.8354 455.852 57.7011 462.135 59.5466 468.391 61.8566 474.509 64.7416 480.624 67.6266 486.656 70.9558 492.376 75.0765 498.113 79.1767 503.578 83.8692 508.617 89.1676 513.618 94.5244 518.183 100.453 522.219 106.805 526.206 113.215 529.691 119.994 532.647 127.01 535.559 134.06 538.047 141.269 540.048 148.64 542.055 156.001 543.681 163.44 545.032 170.904 546.303 178.402 547.393 185.911 548.126 193.454 545.922 186.369 543.712 179.328 541.182 172.495 538.745 165.64 536.088 158.944 533.139 152.534" fill="#FF0000" fill-rule="evenodd" transform="matrix(1 0 0 -1 1934 1146)"/></g></svg>